<svg xmlns:xlink="http://www.w3.org/1999/xlink" xmlns="http://www.w3.org/2000/svg" width="81" height="27" viewBox="0 0 81 27" fill="none">
<g clip-path="url(#clip0_271_3609)">
<path d="M60.9346 24.0155C57.4703 24.0155 54.6569 24.2517 54.6569 21.2004V12.2632C54.6569 9.21193 58.0158 4.61536 61.4896 4.61536C64.9538 4.61536 67.2218 9.21193 67.2218 12.2632V21.2004C67.2218 24.2517 64.4084 24.0155 60.9441 24.0155H60.9346Z" stroke="#0F4FAF" stroke-width="2" stroke-linecap="round" stroke-linejoin="round"/>
<path d="M18.4588 23.7135C21.7398 23.7135 24.4045 23.9467 24.4045 20.9349V12.1133C24.4045 9.10154 21.2232 4.56445 17.9331 4.56445C14.652 4.56445 12.504 9.10154 12.504 12.1133V20.9349C12.504 23.9467 15.1687 23.7135 18.4497 23.7135H18.4588Z" stroke="#0F4FAF" stroke-width="2" stroke-linecap="round" stroke-linejoin="round"/>
<path d="M8.0448 21.6983C10.5056 21.6983 12.5041 21.8824 12.5041 19.5047V12.5403C12.5041 10.1626 10.1181 6.58069 7.65053 6.58069C5.18976 6.58069 3.5787 10.1626 3.5787 12.5403V19.5047C3.5787 21.8824 5.57723 21.6983 8.03801 21.6983H8.0448Z" stroke="#0F4FAF" stroke-width="2" stroke-linecap="round" stroke-linejoin="round"/>
<path d="M32.3404 25.7576C28.235 25.7576 24.9048 25.8659 24.9048 22.0075V11.8399C24.9048 7.98153 28.235 3.53259 32.3404 3.53259C36.4458 3.53259 39.776 7.98153 39.776 11.8399V22.0075C39.776 25.8659 36.4458 25.7576 32.3404 25.7576Z" stroke="#0F4FAF" stroke-width="2" stroke-linecap="round" stroke-linejoin="round"/>
<path d="M47.2117 25.7576C43.1063 25.7576 39.7761 25.8659 39.7761 22.0075V11.8399C39.7761 7.98153 43.1063 3.53259 47.2117 3.53259C51.3171 3.53259 54.6473 7.98153 54.6473 11.8399V22.0075C54.6473 25.8659 51.3171 25.7576 47.2117 25.7576Z" stroke="#0F4FAF" stroke-width="2" stroke-linecap="round" stroke-linejoin="round"/>
<path d="M72.5061 21.6983C74.9669 21.6983 76.9654 21.8824 76.9654 19.5047V12.5403C76.9654 10.1626 74.5794 6.58069 72.1118 6.58069C69.651 6.58069 68.04 10.1626 68.04 12.5403V19.5047C68.04 21.8824 70.0385 21.6983 72.4993 21.6983H72.5061Z" stroke="#0F4FAF" stroke-width="2" stroke-linecap="round" stroke-linejoin="round"/>
</g>
<defs>
<clipPath id="clip0_271_3609">
<rect width="80.3287" height="26.6129" fill="white" transform="translate(0.603516 0.129028)"/>
</clipPath>
</defs>
</svg>