<svg xmlns:xlink="http://www.w3.org/1999/xlink" xmlns="http://www.w3.org/2000/svg" width="78" height="30" viewBox="0 0 78 30" fill="none">
<g clip-path="url(#clip0_271_3592)">
<path d="M64.0859 26.4702C59.9594 26.4702 56.608 26.7537 56.608 23.0922V12.3675C56.608 8.70596 60.6091 3.19006 64.747 3.19006C68.8735 3.19006 71.5751 8.70596 71.5751 12.3675V23.0922C71.5751 26.7537 68.2238 26.4702 64.0973 26.4702H64.0859Z" stroke="#0F4FAF" stroke-width="2" stroke-linecap="round" stroke-linejoin="round"/>
<path d="M13.6787 26.4702C17.8052 26.4702 21.1566 26.7537 21.1566 23.0922V12.3675C21.1566 8.70596 17.1555 3.19006 13.0176 3.19006C8.89109 3.19006 6.18948 8.70596 6.18948 12.3675V23.0922C6.18948 26.7537 9.54084 26.4702 13.6673 26.4702H13.6787Z" stroke="#0F4FAF" stroke-width="2" stroke-linecap="round" stroke-linejoin="round"/>
<path d="M30.0252 28.5609C25.1349 28.5609 21.168 28.6908 21.168 24.0607V11.8596C21.168 7.22959 25.1349 1.89087 30.0252 1.89087C34.9154 1.89087 38.8823 7.22959 38.8823 11.8596V24.0607C38.8823 28.6908 34.9154 28.5609 30.0252 28.5609Z" stroke="#0F4FAF" stroke-width="2" stroke-linecap="round" stroke-linejoin="round"/>
<path d="M47.7395 28.5609C42.8492 28.5609 38.8823 28.6908 38.8823 24.0607V11.8596C38.8823 7.22959 42.8492 1.89087 47.7395 1.89087C52.6297 1.89087 56.5966 7.22959 56.5966 11.8596V24.0607C56.5966 28.6908 52.6297 28.5609 47.7395 28.5609Z" stroke="#0F4FAF" stroke-width="2" stroke-linecap="round" stroke-linejoin="round"/>
<path d="M26.765 17.1393C23.2541 16.9858 19.7431 16.7377 16.2436 16.4188" stroke="#0F4FAF" stroke-width="2" stroke-linecap="round" stroke-linejoin="round"/>
<path d="M61.5211 16.0763C58.0215 16.4543 54.5106 16.7377 50.9996 16.9503" stroke="#0F4FAF" stroke-width="2" stroke-linecap="round" stroke-linejoin="round"/>
<path d="M76.1348 14.0565C73.228 14.5526 70.3098 15.0014 67.3916 15.3794" stroke="#0F4FAF" stroke-width="2" stroke-linecap="round" stroke-linejoin="round"/>
<path d="M33.2853 17.3401C37.0128 17.411 40.7518 17.3756 44.4907 17.2574" stroke="#0F4FAF" stroke-width="2" stroke-linecap="round" stroke-linejoin="round"/>
<path d="M10.373 15.7928C7.4548 15.4503 4.53661 15.0487 1.62982 14.5999" stroke="#0F4FAF" stroke-width="2" stroke-linecap="round" stroke-linejoin="round"/>
<path d="M50.9996 16.844C50.9996 14.9783 49.54 13.4659 47.7395 13.4659C45.9389 13.4659 44.4793 14.9783 44.4793 16.844V17.7771C44.4793 19.6427 45.9389 21.1551 47.7395 21.1551C49.54 21.1551 50.9996 19.6427 50.9996 17.7771V16.844Z" stroke="#0F4FAF" stroke-width="2" stroke-linecap="round" stroke-linejoin="round"/>
<path d="M33.2853 16.844C33.2853 14.9783 31.8257 13.4659 30.0251 13.4659C28.2246 13.4659 26.765 14.9783 26.765 16.844V17.7771C26.765 19.6427 28.2246 21.1551 30.0251 21.1551C31.8257 21.1551 33.2853 19.6427 33.2853 17.7771V16.844Z" stroke="#0F4FAF" stroke-width="2" stroke-linecap="round" stroke-linejoin="round"/>
<path d="M13.314 12.9463H13.3026C11.6846 12.9463 10.373 14.3053 10.373 15.9818V16.8322C10.373 18.5087 11.6846 19.8677 13.3026 19.8677H13.314C14.9319 19.8677 16.2436 18.5087 16.2436 16.8322V15.9818C16.2436 14.3053 14.9319 12.9463 13.314 12.9463Z" stroke="#0F4FAF" stroke-width="2" stroke-linecap="round" stroke-linejoin="round"/>
<path d="M64.462 12.5565H64.4506C62.8327 12.5565 61.5211 13.9156 61.5211 15.592V16.4424C61.5211 18.1189 62.8327 19.478 64.4506 19.478H64.462C66.08 19.478 67.3916 18.1189 67.3916 16.4424V15.592C67.3916 13.9156 66.08 12.5565 64.462 12.5565Z" stroke="#0F4FAF" stroke-width="2" stroke-linecap="round" stroke-linejoin="round"/>
</g>
<defs>
<clipPath id="clip0_271_3592">
<rect width="76.7848" height="29.0323" fill="white" transform="translate(0.489899 0.709717)"/>
</clipPath>
</defs>
</svg>