<svg xmlns:xlink="http://www.w3.org/1999/xlink" xmlns="http://www.w3.org/2000/svg" width="64" height="51" viewBox="0 0 64 51" fill="none">
<g clip-path="url(#clip0_271_9389)">
<path d="M32.5615 30.059V26.9241" stroke="#0F4FAF" stroke-linecap="round" stroke-linejoin="round"/>
<path d="M30.9785 28.4916H34.1443" stroke="#0F4FAF" stroke-linecap="round" stroke-linejoin="round"/>
<path d="M17.974 14.117V12.5308C17.974 11.2027 17.3389 9.53669 16.3058 8.1992C15.2774 6.86171 13.8556 5.85742 12.2869 5.85742C9.14483 5.85742 6.60461 9.86989 6.60461 12.5308V20.2929C6.60461 22.9491 9.14483 22.7802 12.2917 22.7802C13.1731 22.7802 14.0072 22.7942 14.756 22.7567" stroke="#0F4FAF" stroke-width="2" stroke-linecap="round" stroke-linejoin="round"/>
<path d="M51.2242 22.7755C48.0821 22.7755 45.5372 22.9491 45.5372 20.2882V12.5261C45.5372 9.86989 48.0821 5.85742 51.2242 5.85742C54.3663 5.85742 56.9113 9.86989 56.9113 12.5261V20.2882C56.9113 22.9444 54.3663 22.7755 51.2242 22.7755Z" stroke="#0F4FAF" stroke-width="2" stroke-linecap="round" stroke-linejoin="round"/>
<path d="M17.9741 14.117V12.1601C17.9741 8.79524 21.0593 3.93335 24.8649 3.93335C26.7701 3.93335 28.4904 5.14882 29.7368 6.78666C30.9832 8.42449 31.7557 10.48 31.7557 12.1601V21.4943C31.7557 23.6672 30.4714 24.2162 28.533 24.3336" stroke="#0F4FAF" stroke-width="2" stroke-linecap="round" stroke-linejoin="round"/>
<path d="M38.6511 24.3288C34.8456 24.3288 31.7603 24.8591 31.7603 21.4943V12.1647C31.7603 8.79987 34.8456 3.93799 38.6511 3.93799C42.4567 3.93799 45.5419 8.79987 45.5419 12.1647V21.4943C45.5419 24.8591 42.4567 24.3288 38.6511 24.3288Z" stroke="#0F4FAF" stroke-width="2" stroke-linecap="round" stroke-linejoin="round"/>
<path d="M27.8506 32.1427C28.2913 31.7109 28.5378 31.0727 28.5378 30.1247V20.7904C28.5378 19.1057 27.7653 17.0502 26.5189 15.417C25.2725 13.7792 23.5474 12.5637 21.647 12.5637C17.8367 12.5637 14.7562 17.4256 14.7562 20.7904V30.1247C14.7562 33.4895 17.8414 32.9592 21.647 32.9592C23.6706 32.9592 25.4952 33.1094 26.7558 32.7387" stroke="#0F4FAF" stroke-width="2" stroke-linecap="round" stroke-linejoin="round"/>
<path d="M23.0736 32.978C27.1493 37.3566 30.3388 44.884 32.5615 50.3419L28.8933 36.1082L22.7513 26.4314L30.8127 35.4606C31.2724 35.9768 31.6136 36.5869 31.8127 37.2439L35.7273 50.3419" stroke="#0F4FAF" stroke-linecap="round" stroke-linejoin="round"/>
<path d="M24.3246 32.9874L28.9595 37.3941" stroke="#0F4FAF" stroke-width="2" stroke-linecap="round" stroke-linejoin="round"/>
<path d="M27.3389 12.5683V10.1984" stroke="#0F4FAF" stroke-linecap="round" stroke-linejoin="round"/>
<path d="M26.1444 11.3811H28.5377" stroke="#0F4FAF" stroke-linecap="round" stroke-linejoin="round"/>
<path d="M13.0501 16.7075V15.1964" stroke="#0F4FAF" stroke-linecap="round" stroke-linejoin="round"/>
<path d="M12.2919 15.952H13.8132" stroke="#0F4FAF" stroke-linecap="round" stroke-linejoin="round"/>
<path d="M10.3629 24.6761L10.6236 25.3707C10.9269 26.1779 11.5667 26.8161 12.3818 27.1118L13.0833 27.3699L12.3818 27.628C11.5667 27.9284 10.9222 28.5619 10.6236 29.3691L10.3629 30.0636L10.1023 29.3691C9.79898 28.5619 9.15919 27.9237 8.34405 27.628L7.64265 27.3699L8.34405 27.1118C9.15919 26.8114 9.80372 26.1779 10.1023 25.3707L10.3629 24.6761Z" stroke="#0F4FAF" stroke-linecap="round" stroke-linejoin="round"/>
<path d="M19.557 16.9703L19.7466 17.4819C19.9693 18.0779 20.4432 18.5472 21.0451 18.7677L21.5617 18.9554L21.0451 19.1432C20.4432 19.3637 19.9693 19.833 19.7466 20.429L19.557 20.9406L19.3674 20.429C19.1447 19.833 18.6708 19.3637 18.0689 19.1432L17.5523 18.9554L18.0689 18.7677C18.6708 18.5472 19.1447 18.0779 19.3674 17.4819L19.557 16.9703Z" stroke="#0F4FAF" stroke-linecap="round" stroke-linejoin="round"/>
</g>
<defs>
<clipPath id="clip0_271_9389">
<rect width="62.9032" height="50.8065" fill="white" transform="translate(0.306442)"/>
</clipPath>
</defs>
</svg>