<svg xmlns:xlink="http://www.w3.org/1999/xlink" xmlns="http://www.w3.org/2000/svg" width="53" height="50" viewBox="0 0 53 50" fill="none">
<g clip-path="url(#clip0_271_9408)">
<path d="M33.2472 8.81458C31.4813 9.49246 28.9745 6.25752 27.3637 5.24071C20.9073 1.17344 14.2097 6.78524 16.5011 15.2973C17.0481 17.331 17.0093 20.8319 16.7638 24.32C16.5528 27.3018 16.346 32.6218 17.3281 34.4195C18.3144 36.2172 19.5247 35.0287 19.8219 33.3469C20.5412 29.3097 21.1571 26.1048 22.9446 22.8012C24.5468 19.8408 29.2244 20.819 29.4957 24.1655C29.8015 27.9067 29.0779 31.0859 28.1088 35.0716C27.7039 36.7277 28.3371 38.3023 29.9652 37.0495C31.589 35.7967 33.5444 30.8413 34.548 28.0269C35.7238 24.7318 37.0978 21.5141 38.4201 19.8666C43.9461 12.9848 41.7452 3.56317 29.6077 6.81956" stroke="#0F4FAF" stroke-width="2" stroke-linecap="round" stroke-linejoin="round"/>
<path d="M13.2838 8.93042C12.8789 10.5908 12.8875 12.5386 13.4604 14.6666" stroke="#0F4FAF" stroke-linecap="round" stroke-linejoin="round"/>
<path d="M11.2207 7.60474C10.5746 9.43243 10.4713 11.6849 11.1475 14.1862" stroke="#0F4FAF" stroke-linecap="round" stroke-linejoin="round"/>
<path d="M46.5261 8.5057C46.3883 6.71661 45.6302 5.15063 44.2132 4.09949" stroke="#0F4FAF" stroke-linecap="round" stroke-linejoin="round"/>
<path d="M44.6526 11.5004C45.066 8.42853 43.9203 5.69556 41.026 4.52429" stroke="#0F4FAF" stroke-linecap="round" stroke-linejoin="round"/>
<path d="M1.60269 26.2249C1.60269 26.2249 7.68005 23.1788 9.59673 25.4055C11.5134 27.6364 11.8192 45.7032 17.9095 45.686C24.8224 45.6689 23.3322 36.2 25.8518 36.3459C25.882 36.3459 25.9165 36.3459 25.9509 36.3459H25.9768C28.5567 36.2043 27.2947 46.2009 34.0052 45.6903C40.0654 45.2312 40.4013 27.6407 42.318 25.4097C44.2347 23.1788 50.4413 25.8045 50.4413 25.8045" stroke="#0F4FAF" stroke-width="2" stroke-linecap="round" stroke-linejoin="round"/>
</g>
<defs>
<clipPath id="clip0_271_9408">
<rect width="52.0161" height="49.5968" fill="white" transform="translate(0.0161285)"/>
</clipPath>
</defs>
</svg>