<svg xmlns:xlink="http://www.w3.org/1999/xlink" xmlns="http://www.w3.org/2000/svg" width="98" height="29" viewBox="0 0 98 29" fill="none">
<g clip-path="url(#clip0_272_836)">
<path d="M10.8778 3.71782C10.8778 3.71782 8.60012 2.97452 7.52269 1.6301C6.66438 0.558792 4.39926 -0.870091 2.29046 0.685491C0.181658 2.24107 -0.16725 5.60845 0.0602379 9.29258C0.289122 12.9767 2.71892 28.6254 5.99028 28.9915C8.88762 29.3152 8.81784 21.26 11.3998 21.1108C13.7137 20.977 13.7249 28.7916 16.6111 28.9464C19.1832 29.0844 21.8865 17.2845 22.4909 11.5661C23.137 5.44515 22.4643 0.475734 18.8176 0.104084C14.6962 -0.315431 14.7549 4.46394 9.32864 5.53243C9.32864 5.53243 12.3711 7.25835 15.8895 3.87831C19.2823 0.793889 20.5091 4.45127 20.5384 5.52539C20.597 7.64408 19.9369 19.7509 18.096 24.0164C16.4631 27.7991 15.6439 26.1238 14.5539 23.2379C13.4639 20.352 12.8722 18.1545 11.3523 18.1995C9.83246 18.246 8.69642 21.1305 7.97069 23.6504C7.1989 25.9859 5.97214 26.9474 5.24641 25.7114C4.52068 24.4753 2.5668 17.2845 2.3407 11.3761C2.11321 5.46768 1.56892 1.98627 5.29247 3.04069C6.42712 3.45316 7.29102 5.01015 8.6071 4.78068C9.92458 4.55122 10.4661 4.21476 10.8764 3.71923L10.8778 3.71782Z" fill="url(#paint0_linear_272_836)"/>
<path d="M16.6152 4.81738C17.186 4.08394 18.8831 3.10132 19.4205 5.81268C20.1476 9.47991 17.9662 22.6313 17.2391 24.2558C17.7583 19.5398 20.1476 4.55413 16.6152 4.81738Z" fill="url(#paint1_linear_272_836)"/>
<path d="M29.2139 4.47671H37.0936V6.47434H34.34V13.7483H31.9409V6.47434H29.2139V4.47671ZM44.1765 8.25938H40.4655V4.47671H38.065V13.7497H40.4655V10.1922H44.1765V13.7497H46.5756V4.47671H44.1765V8.25938ZM54.1413 9.92759C54.1413 10.5174 53.9808 10.9876 53.6626 11.3354C53.343 11.6845 52.9271 11.8576 52.4107 11.8576C51.8943 11.8576 51.4533 11.6817 51.1128 11.3283C50.7722 10.9764 50.6006 10.5076 50.6006 9.92759V4.47671H48.2001V9.92759C48.2001 10.73 48.3745 11.4325 48.7192 12.0364C49.064 12.6404 49.5538 13.1049 50.1875 13.4315C50.8211 13.7595 51.558 13.9214 52.3967 13.9214C53.2355 13.9214 53.9682 13.7595 54.5949 13.4315C55.2201 13.1049 55.7016 12.6404 56.0366 12.0364C56.3729 11.4325 56.5404 10.7286 56.5404 9.92759V4.47671H54.1413V9.92759ZM61.7977 8.45929L59.6205 4.47812H57.2214L60.6045 10.8539V13.7511H63.0036V10.7877L66.321 4.47953H63.9219L61.7977 8.46069V8.45929ZM78.2927 6.69395C78.703 7.39502 78.9096 8.19885 78.9096 9.10827C78.9096 10.0177 78.7016 10.8215 78.2857 11.5296C77.8712 12.2349 77.2851 12.7811 76.53 13.1683C75.7736 13.5568 74.9069 13.7511 73.9272 13.7511H70.0585V4.47671H74.0193C74.9795 4.47671 75.8294 4.66958 76.5677 5.05812C77.306 5.44667 77.881 5.99006 78.2913 6.69254L78.2927 6.69395ZM76.4575 9.13361C76.4575 8.60569 76.3514 8.13832 76.1365 7.73147C75.9229 7.32744 75.6285 7.01069 75.2516 6.78686C74.8762 6.56162 74.4477 6.449 73.9663 6.449H72.4576V11.7929H74.0849C74.5482 11.7929 74.9586 11.6831 75.3158 11.4621C75.6745 11.2439 75.955 10.9299 76.156 10.5245C76.3556 10.119 76.4575 9.65448 76.4575 9.13361ZM85.8864 9.929C85.8864 10.5189 85.7259 10.989 85.4063 11.3368C85.0881 11.6859 84.6708 11.859 84.1544 11.859C83.638 11.859 83.1984 11.6831 82.8564 11.3297C82.5145 10.9778 82.3456 10.509 82.3456 9.929V4.47671H79.9465V9.92759C79.9465 10.73 80.1196 11.4325 80.4643 12.0364C80.809 12.6404 81.2989 13.1049 81.9339 13.4315C82.5675 13.7595 83.3044 13.9214 84.1432 13.9214C84.982 13.9214 85.7147 13.7595 86.3399 13.4315C86.9652 13.1049 87.4467 12.6404 87.783 12.0364C88.1194 11.4325 88.2855 10.7286 88.2855 9.92759V4.47671H85.8878V9.92759L85.8864 9.929ZM96.5713 10.6695C96.2476 11.0031 95.8805 11.2692 95.4702 11.4621C95.0599 11.6549 94.6663 11.7549 94.2895 11.7549C93.8261 11.7549 93.4046 11.6366 93.025 11.4043C92.644 11.1706 92.3454 10.8497 92.1248 10.44C91.9071 10.0304 91.7969 9.57283 91.7969 9.06885C91.7969 8.56487 91.9057 8.11016 92.1248 7.7005C92.344 7.29084 92.644 6.96846 93.025 6.73618C93.4032 6.50249 93.8261 6.38565 94.2895 6.38565C94.6914 6.38565 95.0975 6.49827 95.5079 6.72492C95.9196 6.94875 96.2741 7.25142 96.5713 7.63011L97.9614 5.93657C97.498 5.44244 96.9328 5.05108 96.2685 4.76531C95.6042 4.47812 94.9329 4.33594 94.2504 4.33594C93.3223 4.33594 92.4863 4.54288 91.7383 4.95676C90.9916 5.37346 90.404 5.94079 89.9756 6.66579C89.5471 7.38798 89.3322 8.20026 89.3322 9.09982C89.3322 9.99938 89.5415 10.8257 89.9602 11.5592C90.3817 12.2912 90.9581 12.8698 91.6922 13.2922C92.4277 13.7145 93.2497 13.9271 94.1583 13.9271C94.8296 13.9271 95.5107 13.7708 96.1973 13.4583C96.8812 13.1443 97.4757 12.7234 97.9725 12.1941L96.5699 10.6737L96.5713 10.6695Z" fill="url(#paint2_linear_272_836)"/>
<path d="M32.2535 17.4493H29.7832V24.5472H32.2535C34.3748 24.5472 35.857 23.0902 35.857 21.0039C35.857 18.9176 34.3748 17.4493 32.2535 17.4493ZM32.2535 23.3929H31.0183V18.6051H32.2535C33.6742 18.6051 34.5926 19.5469 34.5926 21.0039C34.5926 22.1935 33.8696 23.3929 32.2535 23.3929Z" fill="url(#paint3_linear_272_836)"/>
<path d="M36.7373 24.5486H41.4894V23.3929H37.9724V21.5008H41.4197V20.3465H37.9724V18.6051H41.4894V17.4493H36.7373V24.5486Z" fill="url(#paint4_linear_272_836)"/>
<path d="M47.0516 22.2498L43.5444 17.4493H42.3916V24.5486H43.6253V19.6426L47.1828 24.5486H48.2854V17.4493H47.0516V22.2498Z" fill="url(#paint5_linear_272_836)"/>
<path d="M54.4061 17.4493H48.9688V18.6051H51.065V24.5486H52.2987V18.6051H54.4061V17.4493Z" fill="url(#paint6_linear_272_836)"/>
<path d="M56.4764 17.4493L53.6377 24.5472H55.025L55.6111 23.0536H58.6313L59.2174 24.5472H60.6033L57.7757 17.4493H56.475H56.4764ZM58.2307 21.9091H56.02L57.1212 19.0724L58.2307 21.9091Z" fill="url(#paint7_linear_272_836)"/>
<path d="M62.0853 17.4493H60.8516V24.5486H65.1655V23.3929H62.0853V17.4493Z" fill="url(#paint8_linear_272_836)"/>
<path d="M73.4348 22.6313C73.0747 23.1662 72.423 23.5125 71.7754 23.5125C70.4147 23.5125 69.4266 22.4567 69.4266 21.0025C69.4266 19.5483 70.4147 18.4924 71.7754 18.4924C72.4286 18.4924 73.0803 18.8373 73.4334 19.3723L73.5395 19.5314L74.5862 18.9345L74.4578 18.7487C73.82 17.8252 72.8919 17.3367 71.7754 17.3367C69.682 17.3367 68.1621 18.8782 68.1621 21.0011C68.1621 23.124 69.682 24.6655 71.7754 24.6655C72.8821 24.6655 73.7865 24.1883 74.4648 23.2479L74.603 23.0578L73.5395 22.475L73.4348 22.6299V22.6313Z" fill="url(#paint9_linear_272_836)"/>
<path d="M76.2732 17.4493H75.0381V24.5486H79.3534V23.3929H76.2732V17.4493Z" fill="url(#paint10_linear_272_836)"/>
<path d="M81.281 17.4493H80.0459V24.5472H81.281V17.4493Z" fill="url(#paint11_linear_272_836)"/>
<path d="M87.0799 22.2498L83.5741 17.4493H82.4199V24.5486H83.6551V19.6426L87.2111 24.5486H88.3151V17.4493H87.0799V22.2498Z" fill="url(#paint12_linear_272_836)"/>
<path d="M90.6869 17.4493H89.4531V24.5472H90.6869V17.4493Z" fill="url(#paint13_linear_272_836)"/>
<path d="M96.937 22.4764L96.8323 22.6313C96.4722 23.1662 95.8204 23.5125 95.1729 23.5125C93.8121 23.5125 92.824 22.4567 92.824 21.0025C92.824 19.5483 93.8121 18.4924 95.1729 18.4924C95.826 18.4924 96.4778 18.8373 96.8309 19.3723L96.937 19.5314L97.9837 18.9345L97.8553 18.7487C97.2175 17.8252 96.2894 17.3367 95.1729 17.3367C93.0794 17.3367 91.5596 18.8782 91.5596 21.0011C91.5596 23.124 93.0794 24.6655 95.1729 24.6655C96.2796 24.6655 97.184 24.1883 97.8623 23.2479L98.0004 23.0578L96.937 22.475V22.4764Z" fill="url(#paint14_linear_272_836)"/>
</g>
<defs>
<linearGradient id="paint0_linear_272_836" x1="11.3551" y1="-1.23189" x2="11.3551" y2="34.8816" gradientUnits="userSpaceOnUse">
<stop stop-color="#194893"/>
<stop offset="1" stop-color="#0B2241"/>
</linearGradient>
<linearGradient id="paint1_linear_272_836" x1="18.0918" y1="-1.23179" x2="18.0918" y2="34.8817" gradientUnits="userSpaceOnUse">
<stop stop-color="#194893"/>
<stop offset="1" stop-color="#0B2241"/>
</linearGradient>
<linearGradient id="paint2_linear_272_836" x1="25.5587" y1="9.12657" x2="107.026" y2="9.12657" gradientUnits="userSpaceOnUse">
<stop stop-color="#194893"/>
<stop offset="1" stop-color="#0B2241"/>
</linearGradient>
<linearGradient id="paint3_linear_272_836" x1="25.5586" y1="20.9997" x2="107.026" y2="20.9997" gradientUnits="userSpaceOnUse">
<stop stop-color="#194893"/>
<stop offset="1" stop-color="#0B2241"/>
</linearGradient>
<linearGradient id="paint4_linear_272_836" x1="25.5583" y1="20.9997" x2="107.026" y2="20.9997" gradientUnits="userSpaceOnUse">
<stop stop-color="#194893"/>
<stop offset="1" stop-color="#0B2241"/>
</linearGradient>
<linearGradient id="paint5_linear_272_836" x1="25.5589" y1="20.9997" x2="107.026" y2="20.9997" gradientUnits="userSpaceOnUse">
<stop stop-color="#194893"/>
<stop offset="1" stop-color="#0B2241"/>
</linearGradient>
<linearGradient id="paint6_linear_272_836" x1="25.5584" y1="20.9997" x2="107.026" y2="20.9997" gradientUnits="userSpaceOnUse">
<stop stop-color="#194893"/>
<stop offset="1" stop-color="#0B2241"/>
</linearGradient>
<linearGradient id="paint7_linear_272_836" x1="25.5589" y1="20.9997" x2="107.026" y2="20.9997" gradientUnits="userSpaceOnUse">
<stop stop-color="#194893"/>
<stop offset="1" stop-color="#0B2241"/>
</linearGradient>
<linearGradient id="paint8_linear_272_836" x1="25.5588" y1="20.9997" x2="107.026" y2="20.9997" gradientUnits="userSpaceOnUse">
<stop stop-color="#194893"/>
<stop offset="1" stop-color="#0B2241"/>
</linearGradient>
<linearGradient id="paint9_linear_272_836" x1="25.559" y1="21.0039" x2="107.026" y2="21.0039" gradientUnits="userSpaceOnUse">
<stop stop-color="#194893"/>
<stop offset="1" stop-color="#0B2241"/>
</linearGradient>
<linearGradient id="paint10_linear_272_836" x1="25.5586" y1="20.9997" x2="107.026" y2="20.9997" gradientUnits="userSpaceOnUse">
<stop stop-color="#194893"/>
<stop offset="1" stop-color="#0B2241"/>
</linearGradient>
<linearGradient id="paint11_linear_272_836" x1="25.5587" y1="20.9997" x2="107.026" y2="20.9997" gradientUnits="userSpaceOnUse">
<stop stop-color="#194893"/>
<stop offset="1" stop-color="#0B2241"/>
</linearGradient>
<linearGradient id="paint12_linear_272_836" x1="25.559" y1="20.9997" x2="107.026" y2="20.9997" gradientUnits="userSpaceOnUse">
<stop stop-color="#194893"/>
<stop offset="1" stop-color="#0B2241"/>
</linearGradient>
<linearGradient id="paint13_linear_272_836" x1="25.5585" y1="20.9997" x2="107.024" y2="20.9997" gradientUnits="userSpaceOnUse">
<stop stop-color="#194893"/>
<stop offset="1" stop-color="#0B2241"/>
</linearGradient>
<linearGradient id="paint14_linear_272_836" x1="25.5586" y1="21.0039" x2="107.026" y2="21.0039" gradientUnits="userSpaceOnUse">
<stop stop-color="#194893"/>
<stop offset="1" stop-color="#0B2241"/>
</linearGradient>
<clipPath id="clip0_272_836">
<rect width="98" height="29" fill="white"/>
</clipPath>
</defs>
</svg>