<svg xmlns:xlink="http://www.w3.org/1999/xlink" xmlns="http://www.w3.org/2000/svg" width="29" height="25" viewBox="0 0 29 25" fill="none">
<g clip-path="url(#clip0_478_4840)">
<path d="M0 7.43265V23.649C0 24.3954 0.595634 25.0005 1.33045 25.0005H21.2847C22.0195 25.0005 22.6151 24.3954 22.6151 23.649V7.43265H0Z" fill="#FEF6E4"/>
<path d="M22.6146 7.43265H0V8.10816H22.6146V7.43265Z" fill="#EEE4CF"/>
<path d="M21.2847 1.35152H1.33045C0.595634 1.35152 0 1.95659 0 2.70254V7.43214H22.6146V2.70254C22.6146 1.95608 22.019 1.35101 21.2842 1.35101L21.2847 1.35152ZM4.32359 5.7431C3.58877 5.7431 2.99314 5.13803 2.99314 4.39157C2.99314 3.64512 3.58877 3.04004 4.32359 3.04004C5.0584 3.04004 5.65403 3.64512 5.65403 4.39157C5.65403 5.13803 5.0584 5.7431 4.32359 5.7431ZM18.2916 5.7431C17.5567 5.7431 16.9611 5.13803 16.9611 4.39157C16.9611 3.64512 17.5567 3.04004 18.2916 3.04004C19.0264 3.04004 19.622 3.64512 19.622 4.39157C19.622 5.13803 19.0264 5.7431 18.2916 5.7431Z" fill="#0F4FAF"/>
<path d="M5.95285 19.2569H2.69382C2.67536 19.2569 2.6604 19.2721 2.6604 19.2909V22.6015C2.6604 22.6203 2.67536 22.6355 2.69382 22.6355H5.95285C5.97131 22.6355 5.98627 22.6203 5.98627 22.6015V19.2909C5.98627 19.2721 5.97131 19.2569 5.95285 19.2569Z" fill="#EEE4CF"/>
<path d="M10.6092 19.2569H7.3502C7.33174 19.2569 7.31677 19.2721 7.31677 19.2909V22.6015C7.31677 22.6203 7.33174 22.6355 7.3502 22.6355H10.6092C10.6277 22.6355 10.6426 22.6203 10.6426 22.6015V19.2909C10.6426 19.2721 10.6277 19.2569 10.6092 19.2569Z" fill="#EEE4CF"/>
<path d="M15.265 19.2569H12.006C11.9875 19.2569 11.9725 19.2721 11.9725 19.2909V22.6015C11.9725 22.6203 11.9875 22.6355 12.006 22.6355H15.265C15.2834 22.6355 15.2984 22.6203 15.2984 22.6015V19.2909C15.2984 19.2721 15.2834 19.2569 15.265 19.2569Z" fill="#3BB538"/>
<path d="M5.95285 14.5273H2.69382C2.67536 14.5273 2.6604 14.5425 2.6604 14.5612V17.8719C2.6604 17.8907 2.67536 17.9059 2.69382 17.9059H5.95285C5.97131 17.9059 5.98627 17.8907 5.98627 17.8719V14.5612C5.98627 14.5425 5.97131 14.5273 5.95285 14.5273Z" fill="#EEE4CF"/>
<path d="M10.6092 14.5273H7.3502C7.33174 14.5273 7.31677 14.5425 7.31677 14.5612V17.8719C7.31677 17.8907 7.33174 17.9059 7.3502 17.9059H10.6092C10.6277 17.9059 10.6426 17.8907 10.6426 17.8719V14.5612C10.6426 14.5425 10.6277 14.5273 10.6092 14.5273Z" fill="#EEE4CF"/>
<path d="M15.265 14.5273H12.006C11.9875 14.5273 11.9725 14.5425 11.9725 14.5612V17.8719C11.9725 17.8907 11.9875 17.9059 12.006 17.9059H15.265C15.2834 17.9059 15.2984 17.8907 15.2984 17.8719V14.5612C15.2984 14.5425 15.2834 14.5273 15.265 14.5273Z" fill="#EEE4CF"/>
<path d="M19.9209 14.5273H16.6618C16.6434 14.5273 16.6284 14.5425 16.6284 14.5612V17.8719C16.6284 17.8907 16.6434 17.9059 16.6618 17.9059H19.9209C19.9393 17.9059 19.9543 17.8907 19.9543 17.8719V14.5612C19.9543 14.5425 19.9393 14.5273 19.9209 14.5273Z" fill="#EEE4CF"/>
<path d="M10.6092 9.79718H7.3502C7.33174 9.79718 7.31677 9.81238 7.31677 9.83113V13.1418C7.31677 13.1605 7.33174 13.1758 7.3502 13.1758H10.6092C10.6277 13.1758 10.6426 13.1605 10.6426 13.1418V9.83113C10.6426 9.81238 10.6277 9.79718 10.6092 9.79718Z" fill="#EEE4CF"/>
<path d="M15.265 9.79718H12.006C11.9875 9.79718 11.9725 9.81238 11.9725 9.83113V13.1418C11.9725 13.1605 11.9875 13.1758 12.006 13.1758H15.265C15.2834 13.1758 15.2984 13.1605 15.2984 13.1418V9.83113C15.2984 9.81238 15.2834 9.79718 15.265 9.79718Z" fill="#EEE4CF"/>
<path d="M19.9209 9.79718H16.6618C16.6434 9.79718 16.6284 9.81238 16.6284 9.83113V13.1418C16.6284 13.1605 16.6434 13.1758 16.6618 13.1758H19.9209C19.9393 13.1758 19.9543 13.1605 19.9543 13.1418V9.83113C19.9543 9.81238 19.9393 9.79718 19.9209 9.79718Z" fill="#EEE4CF"/>
<path d="M3.65808 3.22807C4.50264 2.72891 5.51981 3.28229 5.63654 4.22334C5.64552 4.16811 5.65351 4.11236 5.65351 4.05459V1.35153H3.65808V3.22807Z" fill="#023076"/>
<path d="M17.6261 1.35153V3.22807C18.4707 2.72891 19.4878 3.28229 19.6046 4.22334C19.6135 4.16811 19.6215 4.11236 19.6215 4.05459V1.35153H17.6261Z" fill="#023076"/>
<path d="M4.32364 0C3.7724 0 3.32593 0.454057 3.32593 1.01352V3.71607C3.32593 4.27604 3.7724 4.72959 4.32364 4.72959C4.87488 4.72959 5.32135 4.27604 5.32135 3.71607V1.01352C5.32135 0.454057 4.87488 0 4.32364 0Z" fill="url(#paint0_linear_478_4840)"/>
<path d="M3.82475 3.71607V1.01352C3.82475 0.454057 4.04823 0 4.3236 0C3.91005 0 3.57532 0.454057 3.57532 1.01352V3.71607C3.57532 4.27604 3.91005 4.72959 4.3236 4.72959C4.04823 4.72959 3.82475 4.27604 3.82475 3.71607Z" fill="#C78D3D"/>
<path d="M4.32361 0C4.59898 0 4.82246 0.454057 4.82246 1.01352V3.71607C4.82246 4.27604 4.59898 4.72959 4.32361 4.72959C4.87484 4.72959 5.32132 4.27604 5.32132 3.71607V1.01352C5.32132 0.454057 4.87484 0 4.32361 0Z" fill="url(#paint1_linear_478_4840)"/>
<path d="M18.2915 0C17.7403 0 17.2938 0.454057 17.2938 1.01352V3.71607C17.2938 4.27604 17.7403 4.72959 18.2915 4.72959C18.8428 4.72959 19.2892 4.27604 19.2892 3.71607V1.01352C19.2892 0.454057 18.8428 0 18.2915 0Z" fill="url(#paint2_linear_478_4840)"/>
<path d="M17.7926 3.71607V1.01352C17.7926 0.454057 18.0161 0 18.2915 0C17.8779 0 17.5432 0.454057 17.5432 1.01352V3.71607C17.5432 4.27604 17.8779 4.72959 18.2915 4.72959C18.0161 4.72959 17.7926 4.27604 17.7926 3.71607Z" fill="#C78D3D"/>
<path d="M18.2915 0C18.5669 0 18.7904 0.454057 18.7904 1.01352V3.71607C18.7904 4.27604 18.5669 4.72959 18.2915 4.72959C18.8427 4.72959 19.2892 4.27604 19.2892 3.71607V1.01352C19.2892 0.454057 18.8427 0 18.2915 0Z" fill="url(#paint3_linear_478_4840)"/>
<path fill-rule="evenodd" clip-rule="evenodd" d="M22.6146 23.2876V10.5913C20.3333 11.0808 18.3993 12.8261 17.7587 15.2717C17.4335 16.5138 17.4854 17.7675 17.8436 18.9077L16.7356 21.1755L19.2234 21.3265C20.0191 22.2088 21.0637 22.8782 22.2864 23.2091C22.3956 23.2385 22.5049 23.2648 22.6146 23.2887V23.2876Z" fill="#EEE4CF"/>
<path d="M22.6146 21.6893C26.1411 21.6893 29 18.7852 29 15.2028C29 11.6204 26.1411 8.71628 22.6146 8.71628C19.0881 8.71628 16.2292 11.6204 16.2292 15.2028C16.2292 18.7852 19.0881 21.6893 22.6146 21.6893Z" fill="#3BB538"/>
<path d="M22.1767 12.9671C22.1767 12.9671 21.6801 12.8023 21.4451 12.5043C21.258 12.2669 20.7641 11.9501 20.3043 12.2949C19.8445 12.6398 19.7685 13.3862 19.8181 14.2028C19.868 15.0194 20.3978 18.4882 21.111 18.5693C21.7427 18.6411 21.7275 16.8555 22.2905 16.8225C22.795 16.7928 22.7974 18.525 23.4267 18.5593C23.9876 18.5899 24.577 15.9743 24.7087 14.7068C24.8496 13.35 24.703 12.2484 23.9078 12.1661C23.0092 12.0731 23.022 13.1325 21.8389 13.3693C21.8389 13.3693 22.5023 13.7519 23.2694 13.0027C24.0092 12.319 24.2766 13.1297 24.283 13.3678C24.2958 13.8374 24.1519 16.521 23.7505 17.4665C23.3945 18.305 23.2159 17.9337 22.9782 17.294C22.7405 16.6543 22.6115 16.1672 22.2801 16.1771C21.9488 16.1874 21.7011 16.8268 21.5428 17.3854C21.3745 17.9031 21.1071 18.1162 20.9488 17.8422C20.7906 17.5683 20.3646 15.9743 20.3153 14.6646C20.2657 13.355 20.147 12.5833 20.9589 12.817C21.2063 12.9084 21.3946 13.2536 21.6816 13.2027C21.9688 13.1518 22.0869 13.0772 22.1764 12.9674L22.1767 12.9671Z" fill="white"/>
<path d="M16.2683 21.4286L16.9875 17.8571L19.8049 20.7023L16.2683 21.4286Z" fill="#3BB538"/>
<path d="M23.3414 13.0534C23.4782 12.8722 23.8849 12.6293 24.0137 13.2994C24.1879 14.2056 23.6652 17.4557 23.4909 17.8571C23.6153 16.6917 24.1879 12.9883 23.3414 13.0534Z" fill="white"/>
</g>
<defs>
<linearGradient id="paint0_linear_478_4840" x1="4.32364" y1="0" x2="4.32364" y2="4.72959" gradientUnits="userSpaceOnUse">
<stop stop-color="#C78D3D"/>
<stop offset="1" stop-color="#EDCC82"/>
</linearGradient>
<linearGradient id="paint1_linear_478_4840" x1="4.82246" y1="0" x2="4.82246" y2="4.72959" gradientUnits="userSpaceOnUse">
<stop stop-color="#C78D3D"/>
<stop offset="1" stop-color="#EDCC82"/>
</linearGradient>
<linearGradient id="paint2_linear_478_4840" x1="18.2915" y1="0" x2="18.2915" y2="4.72959" gradientUnits="userSpaceOnUse">
<stop stop-color="#C78D3D"/>
<stop offset="1" stop-color="#EDCC82"/>
</linearGradient>
<linearGradient id="paint3_linear_478_4840" x1="18.7904" y1="0" x2="18.7904" y2="4.72959" gradientUnits="userSpaceOnUse">
<stop stop-color="#C78D3D"/>
<stop offset="1" stop-color="#EDCC82"/>
</linearGradient>
<clipPath id="clip0_478_4840">
<rect width="29" height="25" fill="white"/>
</clipPath>
</defs>
</svg>